<mxfile host="Electron" agent="Mozilla/5.0 (Windows NT 10.0; Win64; x64) AppleWebKit/537.36 (KHTML, like Gecko) draw.io/28.1.2 Chrome/138.0.7204.243 Electron/37.4.0 Safari/537.36" version="28.1.2">
  <diagram name="Страница — 1" id="SsBSkVMVMdWQq_6ef-g-">
    <mxGraphModel dx="946" dy="662" grid="1" gridSize="10" guides="1" tooltips="1" connect="1" arrows="1" fold="1" page="1" pageScale="1" pageWidth="827" pageHeight="1169" math="0" shadow="0">
      <root>
        <mxCell id="0" />
        <mxCell id="1" parent="0" />
        <mxCell id="Dyx80tAi4ZfpFmJzEdqi-1" value="" style="group" vertex="1" connectable="0" parent="1">
          <mxGeometry x="320" y="260" width="650" height="320" as="geometry" />
        </mxCell>
        <mxCell id="Dyx80tAi4ZfpFmJzEdqi-2" value="&lt;font color=&quot;#212121&quot;&gt;Зона доступности&amp;nbsp;3&lt;/font&gt;" style="rounded=1;whiteSpace=wrap;html=1;fontFamily=VK Sans Display;strokeColor=none;arcsize=12;fillColor=#F6F7F9;spacing=10;verticalAlign=top;spacingTop=0;spacingLeft=0;spacingRight=0;fontStyle=1;arcSize=12;absoluteArcSize=1;container=0;" vertex="1" parent="Dyx80tAi4ZfpFmJzEdqi-1">
          <mxGeometry x="450" y="45" width="190" height="260" as="geometry" />
        </mxCell>
        <mxCell id="Dyx80tAi4ZfpFmJzEdqi-3" value="&lt;font color=&quot;#212121&quot;&gt;Зона доступности&amp;nbsp;1&lt;/font&gt;" style="rounded=1;whiteSpace=wrap;html=1;fontFamily=VK Sans Display;strokeColor=none;arcsize=12;fillColor=#F6F7F9;spacing=10;verticalAlign=top;spacingTop=0;spacingLeft=0;spacingRight=0;fontStyle=1;arcSize=12;absoluteArcSize=1;container=0;" vertex="1" parent="Dyx80tAi4ZfpFmJzEdqi-1">
          <mxGeometry x="10" y="45" width="190" height="260" as="geometry" />
        </mxCell>
        <mxCell id="Dyx80tAi4ZfpFmJzEdqi-4" value="&lt;font color=&quot;#212121&quot;&gt;Availility zone 2&lt;/font&gt;" style="rounded=1;whiteSpace=wrap;html=1;fontFamily=VK Sans Display;strokeColor=none;arcsize=12;fillColor=#F6F7F9;spacing=10;verticalAlign=top;spacingTop=0;spacingLeft=0;spacingRight=0;fontStyle=1;arcSize=12;absoluteArcSize=1;container=0;" vertex="1" parent="Dyx80tAi4ZfpFmJzEdqi-1">
          <mxGeometry x="240" y="45" width="180" height="260" as="geometry" />
        </mxCell>
        <mxCell id="Dyx80tAi4ZfpFmJzEdqi-5" style="edgeStyle=orthogonalEdgeStyle;shape=connector;rounded=1;orthogonalLoop=1;jettySize=auto;html=1;labelBackgroundColor=default;strokeColor=#7C8A9A;strokeWidth=1;fontFamily=VK Sans Display;fontSize=16;fontColor=#212121;startArrow=none;startFill=0;endArrow=open;endFill=0;" edge="1" parent="Dyx80tAi4ZfpFmJzEdqi-1">
          <mxGeometry relative="1" as="geometry">
            <mxPoint x="324.9999999999998" y="135" as="sourcePoint" />
            <mxPoint x="325" y="165" as="targetPoint" />
          </mxGeometry>
        </mxCell>
        <mxCell id="Dyx80tAi4ZfpFmJzEdqi-6" value="&lt;font color=&quot;#212121&quot;&gt;Master-узел&lt;/font&gt;" style="rounded=1;whiteSpace=wrap;html=1;fontFamily=VK Sans Display;strokeColor=none;arcsize=12;fillColor=#FFFFFF;spacing=0;spacingTop=12;spacingBottom=12;arcSize=12;absoluteArcSize=1;container=0;" vertex="1" parent="Dyx80tAi4ZfpFmJzEdqi-1">
          <mxGeometry x="40" y="95" width="120" height="40" as="geometry" />
        </mxCell>
        <mxCell id="Dyx80tAi4ZfpFmJzEdqi-7" style="edgeStyle=orthogonalEdgeStyle;shape=connector;rounded=1;orthogonalLoop=1;jettySize=auto;html=1;labelBackgroundColor=default;strokeColor=#7C8A9A;strokeWidth=1;fontFamily=VK Sans Display;fontSize=16;fontColor=#212121;startArrow=none;startFill=0;endArrow=none;endFill=0;exitX=0.5;exitY=1;exitDx=0;exitDy=0;entryX=0.573;entryY=0.013;entryDx=0;entryDy=0;entryPerimeter=0;" edge="1" parent="Dyx80tAi4ZfpFmJzEdqi-1" source="Dyx80tAi4ZfpFmJzEdqi-6">
          <mxGeometry relative="1" as="geometry">
            <mxPoint x="80" y="135" as="sourcePoint" />
            <mxPoint x="100.03749999999991" y="150.01999999999998" as="targetPoint" />
            <Array as="points" />
          </mxGeometry>
        </mxCell>
        <mxCell id="Dyx80tAi4ZfpFmJzEdqi-8" value="&lt;font color=&quot;#212121&quot;&gt;Node 1&lt;/font&gt;" style="rounded=1;whiteSpace=wrap;html=1;fontFamily=VK Sans Display;strokeColor=#7C8A9A;arcsize=12;fillColor=#FFFFFF;spacing=0;spacingTop=12;spacingBottom=12;arcSize=12;absoluteArcSize=1;strokeWidth=1;container=0;" vertex="1" parent="Dyx80tAi4ZfpFmJzEdqi-1">
          <mxGeometry x="31.25" y="149.5" width="137.5" height="40" as="geometry" />
        </mxCell>
        <mxCell id="Dyx80tAi4ZfpFmJzEdqi-9" value="&lt;font color=&quot;#212121&quot;&gt;Node 1&lt;/font&gt;" style="rounded=1;whiteSpace=wrap;html=1;fontFamily=VK Sans Display;strokeColor=#7C8A9A;arcsize=12;fillColor=#FFFFFF;spacing=0;spacingTop=12;spacingBottom=12;arcSize=12;absoluteArcSize=1;strokeWidth=1;container=0;" vertex="1" parent="Dyx80tAi4ZfpFmJzEdqi-1">
          <mxGeometry x="36.25" y="159.5" width="137.5" height="40" as="geometry" />
        </mxCell>
        <mxCell id="Dyx80tAi4ZfpFmJzEdqi-10" value="&lt;font color=&quot;#212121&quot;&gt;Группа worker-узлов А&lt;/font&gt;" style="rounded=1;whiteSpace=wrap;html=1;fontFamily=VK Sans Display;strokeColor=#7C8A9A;arcsize=12;fillColor=#FFFFFF;spacing=0;spacingTop=12;spacingBottom=12;arcSize=12;absoluteArcSize=1;strokeWidth=1;container=0;" vertex="1" parent="Dyx80tAi4ZfpFmJzEdqi-1">
          <mxGeometry x="41.25" y="169.5" width="137.5" height="40" as="geometry" />
        </mxCell>
        <mxCell id="Dyx80tAi4ZfpFmJzEdqi-11" value="&lt;font color=&quot;#212121&quot;&gt;Node 1&lt;/font&gt;" style="rounded=1;whiteSpace=wrap;html=1;fontFamily=VK Sans Display;strokeColor=#7C8A9A;arcsize=12;fillColor=#FFFFFF;spacing=0;spacingTop=12;spacingBottom=12;arcSize=12;absoluteArcSize=1;strokeWidth=1;container=0;" vertex="1" parent="Dyx80tAi4ZfpFmJzEdqi-1">
          <mxGeometry x="31.25" y="225" width="137.5" height="40" as="geometry" />
        </mxCell>
        <mxCell id="Dyx80tAi4ZfpFmJzEdqi-12" value="&lt;font color=&quot;#212121&quot;&gt;Node 1&lt;/font&gt;" style="rounded=1;whiteSpace=wrap;html=1;fontFamily=VK Sans Display;strokeColor=#7C8A9A;arcsize=12;fillColor=#FFFFFF;spacing=0;spacingTop=12;spacingBottom=12;arcSize=12;absoluteArcSize=1;strokeWidth=1;container=0;" vertex="1" parent="Dyx80tAi4ZfpFmJzEdqi-1">
          <mxGeometry x="36.25" y="235" width="137.5" height="40" as="geometry" />
        </mxCell>
        <mxCell id="Dyx80tAi4ZfpFmJzEdqi-13" value="&lt;span style=&quot;color: rgb(33, 33, 33);&quot;&gt;Группа worker-узлов&amp;nbsp;D&lt;/span&gt;" style="rounded=1;whiteSpace=wrap;html=1;fontFamily=VK Sans Display;strokeColor=#7C8A9A;arcsize=12;fillColor=#FFFFFF;spacing=0;spacingTop=12;spacingBottom=12;arcSize=12;absoluteArcSize=1;strokeWidth=1;container=0;" vertex="1" parent="Dyx80tAi4ZfpFmJzEdqi-1">
          <mxGeometry x="41.25" y="245" width="137.5" height="40" as="geometry" />
        </mxCell>
        <mxCell id="Dyx80tAi4ZfpFmJzEdqi-14" value="&lt;font color=&quot;#212121&quot;&gt;Зона доступности&amp;nbsp;2&lt;/font&gt;" style="rounded=1;whiteSpace=wrap;html=1;fontFamily=VK Sans Display;strokeColor=none;arcsize=12;fillColor=#F6F7F9;spacing=10;verticalAlign=top;spacingTop=0;spacingLeft=0;spacingRight=0;fontStyle=1;arcSize=12;absoluteArcSize=1;container=0;" vertex="1" parent="Dyx80tAi4ZfpFmJzEdqi-1">
          <mxGeometry x="230" y="45" width="190" height="260" as="geometry" />
        </mxCell>
        <mxCell id="Dyx80tAi4ZfpFmJzEdqi-15" value="&lt;font color=&quot;#212121&quot;&gt;Node 1&lt;/font&gt;" style="rounded=1;whiteSpace=wrap;html=1;fontFamily=VK Sans Display;strokeColor=#7C8A9A;arcsize=12;fillColor=#FFFFFF;spacing=0;spacingTop=12;spacingBottom=12;arcSize=12;absoluteArcSize=1;strokeWidth=1;container=0;" vertex="1" parent="Dyx80tAi4ZfpFmJzEdqi-1">
          <mxGeometry x="246.25" y="149.5" width="137.5" height="40" as="geometry" />
        </mxCell>
        <mxCell id="Dyx80tAi4ZfpFmJzEdqi-16" value="&lt;font color=&quot;#212121&quot;&gt;Node 1&lt;/font&gt;" style="rounded=1;whiteSpace=wrap;html=1;fontFamily=VK Sans Display;strokeColor=#7C8A9A;arcsize=12;fillColor=#FFFFFF;spacing=0;spacingTop=12;spacingBottom=12;arcSize=12;absoluteArcSize=1;strokeWidth=1;container=0;" vertex="1" parent="Dyx80tAi4ZfpFmJzEdqi-1">
          <mxGeometry x="256.25" y="159.5" width="137.5" height="40" as="geometry" />
        </mxCell>
        <mxCell id="Dyx80tAi4ZfpFmJzEdqi-17" value="&lt;font color=&quot;#212121&quot;&gt;Группа worker-узлов&amp;nbsp;B&lt;/font&gt;" style="rounded=1;whiteSpace=wrap;html=1;fontFamily=VK Sans Display;strokeColor=#7C8A9A;arcsize=12;fillColor=#FFFFFF;spacing=0;spacingTop=12;spacingBottom=12;arcSize=12;absoluteArcSize=1;strokeWidth=1;container=0;" vertex="1" parent="Dyx80tAi4ZfpFmJzEdqi-1">
          <mxGeometry x="266.25" y="169.5" width="137.5" height="40" as="geometry" />
        </mxCell>
        <mxCell id="Dyx80tAi4ZfpFmJzEdqi-18" style="edgeStyle=orthogonalEdgeStyle;shape=connector;rounded=1;orthogonalLoop=1;jettySize=auto;html=1;labelBackgroundColor=default;strokeColor=#7C8A9A;strokeWidth=1;fontFamily=VK Sans Display;fontSize=16;fontColor=#212121;startArrow=none;startFill=0;endArrow=none;endFill=0;exitX=0.5;exitY=1;exitDx=0;exitDy=0;" edge="1" parent="Dyx80tAi4ZfpFmJzEdqi-1" source="Dyx80tAi4ZfpFmJzEdqi-19">
          <mxGeometry relative="1" as="geometry">
            <mxPoint x="305" y="135" as="sourcePoint" />
            <mxPoint x="325" y="150" as="targetPoint" />
            <Array as="points" />
          </mxGeometry>
        </mxCell>
        <mxCell id="Dyx80tAi4ZfpFmJzEdqi-19" value="&lt;font color=&quot;#212121&quot;&gt;Master&lt;/font&gt;&lt;span style=&quot;color: rgb(33, 33, 33);&quot;&gt;-узел&lt;/span&gt;" style="rounded=1;whiteSpace=wrap;html=1;fontFamily=VK Sans Display;strokeColor=none;arcsize=12;fillColor=#FFFFFF;spacing=0;spacingTop=12;spacingBottom=12;arcSize=12;absoluteArcSize=1;container=0;" vertex="1" parent="Dyx80tAi4ZfpFmJzEdqi-1">
          <mxGeometry x="265" y="95" width="120" height="40" as="geometry" />
        </mxCell>
        <mxCell id="Dyx80tAi4ZfpFmJzEdqi-20" value="&lt;font color=&quot;#212121&quot;&gt;Master&lt;/font&gt;&lt;span style=&quot;color: rgb(33, 33, 33);&quot;&gt;-узел&lt;/span&gt;" style="rounded=1;whiteSpace=wrap;html=1;fontFamily=VK Sans Display;strokeColor=none;arcsize=12;fillColor=#FFFFFF;spacing=0;spacingTop=12;spacingBottom=12;arcSize=12;absoluteArcSize=1;container=0;" vertex="1" parent="Dyx80tAi4ZfpFmJzEdqi-1">
          <mxGeometry x="486.25" y="95" width="120" height="40" as="geometry" />
        </mxCell>
        <mxCell id="Dyx80tAi4ZfpFmJzEdqi-21" style="edgeStyle=orthogonalEdgeStyle;shape=connector;rounded=1;orthogonalLoop=1;jettySize=auto;html=1;labelBackgroundColor=default;strokeColor=#7C8A9A;strokeWidth=1;fontFamily=VK Sans Display;fontSize=16;fontColor=#212121;startArrow=none;startFill=0;endArrow=none;endFill=0;exitX=0.5;exitY=1;exitDx=0;exitDy=0;entryX=0.581;entryY=0.007;entryDx=0;entryDy=0;entryPerimeter=0;" edge="1" parent="Dyx80tAi4ZfpFmJzEdqi-1" source="Dyx80tAi4ZfpFmJzEdqi-20" target="Dyx80tAi4ZfpFmJzEdqi-22">
          <mxGeometry relative="1" as="geometry">
            <mxPoint x="525" y="135" as="sourcePoint" />
            <mxPoint x="525.0000000000002" y="165" as="targetPoint" />
            <Array as="points" />
          </mxGeometry>
        </mxCell>
        <mxCell id="Dyx80tAi4ZfpFmJzEdqi-22" value="&lt;font color=&quot;#212121&quot;&gt;Node 1&lt;/font&gt;" style="rounded=1;whiteSpace=wrap;html=1;fontFamily=VK Sans Display;strokeColor=#7C8A9A;arcsize=12;fillColor=#FFFFFF;spacing=0;spacingTop=12;spacingBottom=12;arcSize=12;absoluteArcSize=1;strokeWidth=1;container=0;" vertex="1" parent="Dyx80tAi4ZfpFmJzEdqi-1">
          <mxGeometry x="466.25" y="149.5" width="137.5" height="40" as="geometry" />
        </mxCell>
        <mxCell id="Dyx80tAi4ZfpFmJzEdqi-23" value="&lt;font color=&quot;#212121&quot;&gt;Node 1&lt;/font&gt;" style="rounded=1;whiteSpace=wrap;html=1;fontFamily=VK Sans Display;strokeColor=#7C8A9A;arcsize=12;fillColor=#FFFFFF;spacing=0;spacingTop=12;spacingBottom=12;arcSize=12;absoluteArcSize=1;strokeWidth=1;container=0;" vertex="1" parent="Dyx80tAi4ZfpFmJzEdqi-1">
          <mxGeometry x="476.25" y="159.5" width="137.5" height="40" as="geometry" />
        </mxCell>
        <mxCell id="Dyx80tAi4ZfpFmJzEdqi-24" value="&lt;font color=&quot;#212121&quot;&gt;Группа worker-узлов&amp;nbsp;C&lt;/font&gt;" style="rounded=1;whiteSpace=wrap;html=1;fontFamily=VK Sans Display;strokeColor=#7C8A9A;arcsize=12;fillColor=#FFFFFF;spacing=0;spacingTop=12;spacingBottom=12;arcSize=12;absoluteArcSize=1;strokeWidth=1;container=0;" vertex="1" parent="Dyx80tAi4ZfpFmJzEdqi-1">
          <mxGeometry x="486.25" y="169.5" width="137.5" height="40" as="geometry" />
        </mxCell>
        <mxCell id="Dyx80tAi4ZfpFmJzEdqi-25" style="edgeStyle=orthogonalEdgeStyle;shape=connector;rounded=1;orthogonalLoop=1;jettySize=auto;html=1;labelBackgroundColor=default;strokeColor=#7C8A9A;strokeWidth=1;fontFamily=VK Sans Display;fontSize=16;fontColor=#212121;startArrow=none;startFill=0;endArrow=none;endFill=0;entryX=1;entryY=0.5;entryDx=0;entryDy=0;" edge="1" parent="Dyx80tAi4ZfpFmJzEdqi-1" target="Dyx80tAi4ZfpFmJzEdqi-17">
          <mxGeometry relative="1" as="geometry">
            <mxPoint x="480" y="120" as="sourcePoint" />
            <mxPoint x="420" y="195" as="targetPoint" />
            <Array as="points">
              <mxPoint x="480" y="120" />
              <mxPoint x="440" y="120" />
              <mxPoint x="440" y="190" />
              <mxPoint x="407" y="190" />
            </Array>
          </mxGeometry>
        </mxCell>
        <mxCell id="Dyx80tAi4ZfpFmJzEdqi-26" style="edgeStyle=orthogonalEdgeStyle;shape=connector;rounded=1;orthogonalLoop=1;jettySize=auto;html=1;labelBackgroundColor=default;strokeColor=#7C8A9A;strokeWidth=1;fontFamily=VK Sans Display;fontSize=16;fontColor=#212121;startArrow=none;startFill=0;endArrow=none;endFill=0;entryX=1;entryY=0.5;entryDx=0;entryDy=0;exitX=0;exitY=0.5;exitDx=0;exitDy=0;" edge="1" parent="Dyx80tAi4ZfpFmJzEdqi-1">
          <mxGeometry relative="1" as="geometry">
            <mxPoint x="480" y="110" as="sourcePoint" />
            <mxPoint x="390" y="110" as="targetPoint" />
            <Array as="points" />
          </mxGeometry>
        </mxCell>
        <mxCell id="Dyx80tAi4ZfpFmJzEdqi-27" style="edgeStyle=orthogonalEdgeStyle;shape=connector;rounded=1;orthogonalLoop=1;jettySize=auto;html=1;labelBackgroundColor=default;strokeColor=#7C8A9A;strokeWidth=1;fontFamily=VK Sans Display;fontSize=16;fontColor=#212121;startArrow=none;startFill=0;endArrow=none;endFill=0;exitX=0;exitY=0.5;exitDx=0;exitDy=0;entryX=1;entryY=0.618;entryDx=0;entryDy=0;entryPerimeter=0;" edge="1" parent="Dyx80tAi4ZfpFmJzEdqi-1" source="Dyx80tAi4ZfpFmJzEdqi-15">
          <mxGeometry relative="1" as="geometry">
            <mxPoint x="252.5" y="177.7199999999999" as="sourcePoint" />
            <mxPoint x="168.75" y="119.72000000000003" as="targetPoint" />
            <Array as="points">
              <mxPoint x="210" y="169" />
              <mxPoint x="210" y="120" />
            </Array>
          </mxGeometry>
        </mxCell>
        <mxCell id="Dyx80tAi4ZfpFmJzEdqi-28" style="edgeStyle=orthogonalEdgeStyle;shape=connector;rounded=1;orthogonalLoop=1;jettySize=auto;html=1;labelBackgroundColor=default;strokeColor=#7C8A9A;strokeWidth=1;fontFamily=VK Sans Display;fontSize=16;fontColor=#212121;startArrow=none;startFill=0;endArrow=none;endFill=0;entryX=0.997;entryY=0.378;entryDx=0;entryDy=0;exitX=0;exitY=0.5;exitDx=0;exitDy=0;entryPerimeter=0;" edge="1" parent="Dyx80tAi4ZfpFmJzEdqi-1">
          <mxGeometry relative="1" as="geometry">
            <mxPoint x="270" y="110" as="sourcePoint" />
            <mxPoint x="168.33749999999998" y="110.11999999999989" as="targetPoint" />
            <Array as="points">
              <mxPoint x="260" y="110" />
            </Array>
          </mxGeometry>
        </mxCell>
        <mxCell id="Dyx80tAi4ZfpFmJzEdqi-29" style="edgeStyle=orthogonalEdgeStyle;shape=connector;rounded=1;orthogonalLoop=1;jettySize=auto;html=1;labelBackgroundColor=default;strokeColor=#7C8A9A;strokeWidth=1;fontFamily=VK Sans Display;fontSize=16;fontColor=#212121;startArrow=none;startFill=0;endArrow=none;endFill=0;entryX=1;entryY=0.5;entryDx=0;entryDy=0;" edge="1" parent="Dyx80tAi4ZfpFmJzEdqi-1" target="Dyx80tAi4ZfpFmJzEdqi-10">
          <mxGeometry relative="1" as="geometry">
            <mxPoint x="270" y="120" as="sourcePoint" />
            <mxPoint x="220" y="195" as="targetPoint" />
            <Array as="points">
              <mxPoint x="220" y="120" />
              <mxPoint x="220" y="189" />
            </Array>
          </mxGeometry>
        </mxCell>
        <mxCell id="Dyx80tAi4ZfpFmJzEdqi-30" style="edgeStyle=orthogonalEdgeStyle;shape=connector;rounded=1;orthogonalLoop=1;jettySize=auto;html=1;labelBackgroundColor=default;strokeColor=#7C8A9A;strokeWidth=1;fontFamily=VK Sans Display;fontSize=16;fontColor=#212121;startArrow=none;startFill=0;endArrow=none;endFill=0;entryX=1;entryY=0.617;entryDx=0;entryDy=0;entryPerimeter=0;exitX=0;exitY=0.5;exitDx=0;exitDy=0;" edge="1" parent="Dyx80tAi4ZfpFmJzEdqi-1" source="Dyx80tAi4ZfpFmJzEdqi-22" target="Dyx80tAi4ZfpFmJzEdqi-19">
          <mxGeometry relative="1" as="geometry">
            <mxPoint x="460" y="170" as="sourcePoint" />
            <mxPoint x="390" y="115" as="targetPoint" />
            <Array as="points">
              <mxPoint x="430" y="170" />
              <mxPoint x="430" y="120" />
              <mxPoint x="390" y="120" />
            </Array>
          </mxGeometry>
        </mxCell>
        <mxCell id="Dyx80tAi4ZfpFmJzEdqi-31" value="Региональный кластер из 3 или 5 master-узлов" style="rounded=1;whiteSpace=wrap;html=1;strokeColor=#7C8A9A;strokeWidth=1;fontColor=#212121;fillColor=none;dashed=1;fontFamily=VK Sans Display;verticalAlign=top;spacing=10;fontStyle=1;arcSize=12;absoluteArcSize=1;container=0;movable=1;resizable=1;rotatable=1;deletable=1;editable=1;locked=0;connectable=1;" vertex="1" parent="Dyx80tAi4ZfpFmJzEdqi-1">
          <mxGeometry width="650" height="320" as="geometry" />
        </mxCell>
        <mxCell id="Dyx80tAi4ZfpFmJzEdqi-32" style="edgeStyle=orthogonalEdgeStyle;shape=connector;rounded=1;orthogonalLoop=1;jettySize=auto;html=1;labelBackgroundColor=default;strokeColor=#7C8A9A;strokeWidth=1;fontFamily=VK Sans Display;fontSize=16;fontColor=#212121;startArrow=none;startFill=0;endArrow=none;endFill=0;entryX=0.001;entryY=0.522;entryDx=0;entryDy=0;exitX=0;exitY=0.5;exitDx=0;exitDy=0;entryPerimeter=0;" edge="1" parent="Dyx80tAi4ZfpFmJzEdqi-1" target="Dyx80tAi4ZfpFmJzEdqi-11">
          <mxGeometry relative="1" as="geometry">
            <mxPoint x="31.25" y="115" as="sourcePoint" />
            <mxPoint x="-60" y="250" as="targetPoint" />
            <Array as="points">
              <mxPoint x="20" y="115" />
              <mxPoint x="20" y="246" />
              <mxPoint x="31" y="246" />
            </Array>
          </mxGeometry>
        </mxCell>
        <mxCell id="Dyx80tAi4ZfpFmJzEdqi-33" value="&lt;font color=&quot;#212121&quot;&gt;Master-узел&lt;/font&gt;" style="rounded=1;whiteSpace=wrap;html=1;fontFamily=VK Sans Display;strokeColor=none;arcsize=12;fillColor=#FFFFFF;spacing=0;spacingTop=12;spacingBottom=12;arcSize=12;absoluteArcSize=1;container=0;" vertex="1" parent="Dyx80tAi4ZfpFmJzEdqi-1">
          <mxGeometry x="31.88" y="95" width="136.25" height="40" as="geometry" />
        </mxCell>
        <mxCell id="Dyx80tAi4ZfpFmJzEdqi-34" value="&lt;font color=&quot;#212121&quot;&gt;Master-узел&lt;/font&gt;" style="rounded=1;whiteSpace=wrap;html=1;fontFamily=VK Sans Display;strokeColor=none;arcsize=12;fillColor=#FFFFFF;spacing=0;spacingTop=12;spacingBottom=12;arcSize=12;absoluteArcSize=1;container=0;" vertex="1" parent="Dyx80tAi4ZfpFmJzEdqi-1">
          <mxGeometry x="256.87" y="95" width="136.25" height="40" as="geometry" />
        </mxCell>
        <mxCell id="Dyx80tAi4ZfpFmJzEdqi-35" value="&lt;font color=&quot;#212121&quot;&gt;Master-узел&lt;/font&gt;" style="rounded=1;whiteSpace=wrap;html=1;fontFamily=VK Sans Display;strokeColor=none;arcsize=12;fillColor=#FFFFFF;spacing=0;spacingTop=12;spacingBottom=12;arcSize=12;absoluteArcSize=1;container=0;" vertex="1" parent="Dyx80tAi4ZfpFmJzEdqi-1">
          <mxGeometry x="476.88" y="95" width="136.25" height="40" as="geometry" />
        </mxCell>
      </root>
    </mxGraphModel>
  </diagram>
</mxfile>
